<svg width="512" height="512" viewBox="0 0 512 512" fill="none" xmlns="http://www.w3.org/2000/svg">
<path d="M254.23 37C326.389 37 384.948 95.5235 384.949 167.637C384.949 171.442 384.769 175.25 384.406 178.874C384.588 180.685 384.949 182.497 384.949 184.49V289.4C384.949 295.559 383.5 301.357 380.962 306.61V412.605C380.962 424.02 390.39 433.442 401.812 433.442C412.878 433.442 422.073 424.599 422.636 413.668L422.688 411.542C423.253 400.612 432.447 391.768 443.512 391.768C454.933 391.769 464.361 401.01 464.362 412.605C464.362 445.581 438.617 472.396 405.983 474.753C404.714 474.934 403.262 475.116 401.812 475.116C400.361 475.116 399.091 475.115 397.641 474.753C365.188 472.578 339.263 445.763 339.263 412.605V329.258H311.339V411.884C311.338 423.298 302.092 432.721 290.49 432.721C279.069 432.72 269.641 423.479 269.64 411.884V329.258H241.722V411.884C241.721 423.298 232.474 432.72 220.872 432.721C209.451 432.721 200.023 423.479 200.022 411.884V329.258H172.1V412.605C172.1 445.581 146.173 472.578 113.721 474.753C112.452 474.934 111 475.116 109.549 475.116C108.099 475.116 106.829 475.115 105.379 474.753C72.9259 472.578 47 445.763 47 412.605C47.001 401.191 56.4283 391.768 67.8499 391.768C79.2715 391.768 88.6991 401.01 88.6996 412.605C88.6996 424.02 98.128 433.442 109.549 433.442C120.972 433.442 130.4 424.02 130.4 412.605V311.863C126.049 305.522 123.512 297.733 123.511 289.4V184.49C123.511 182.497 123.872 180.685 124.054 178.874C123.691 175.069 123.511 171.442 123.511 167.637C123.512 95.5241 182.072 37.0001 254.23 37ZM186.061 221.269C174.546 221.269 165.211 232.953 165.211 247.363C165.212 261.772 174.546 273.453 186.061 273.453C197.575 273.452 206.91 261.772 206.911 247.363C206.911 232.953 197.575 221.269 186.061 221.269ZM325.301 221.269C313.786 221.269 304.451 232.953 304.451 247.363C304.452 261.772 313.787 273.452 325.301 273.453C336.815 273.453 346.15 261.772 346.151 247.363C346.151 232.953 336.816 221.269 325.301 221.269Z" fill="#715CD7"/>
</svg>
